<svg xmlns="http://www.w3.org/2000/svg" xmlns:xlink="http://www.w3.org/1999/xlink" width="500" zoomAndPan="magnify" viewBox="0 0 375 374.999991" height="500" preserveAspectRatio="xMidYMid meet" version="1.0"><defs><clipPath id="3f23869f57"><path d="M 27.476562 36.714844 L 337.226562 36.714844 L 337.226562 338.214844 L 27.476562 338.214844 Z M 27.476562 36.714844 " clip-rule="nonzero"/></clipPath></defs><g clip-path="url(#3f23869f57)"><path fill="#bb6591" d="M 211.859375 287.347656 C 216.578125 296.464844 223.660156 303.847656 232.042969 308.933594 C 240.550781 314.269531 250.671875 317.246094 261.226562 317.246094 C 276.503906 317.246094 290.414062 310.980469 300.472656 300.996094 C 310.535156 291.007812 316.746094 277.046875 316.746094 261.726562 L 316.746094 261.289062 C 314.820312 214.515625 301.40625 184.921875 278.863281 167.242188 C 262.035156 154.152344 239.742188 147.203125 213.101562 144.414062 L 227.632812 125.179688 C 252.722656 129.089844 274.457031 137.03125 291.84375 150.742188 C 319.164062 172.144531 335.496094 206.699219 337.734375 260.359375 C 337.734375 260.792969 337.859375 261.289062 337.859375 261.664062 C 337.859375 282.816406 329.226562 301.988281 315.441406 315.820312 C 301.53125 329.65625 282.339844 338.214844 261.226562 338.214844 C 246.757812 338.214844 232.847656 334.121094 220.988281 326.738281 C 209.933594 319.976562 200.621094 310.238281 194.039062 298.386719 C 191.242188 297.769531 187.082031 297.394531 182.550781 297.394531 C 178.140625 297.394531 173.855469 297.832031 171.0625 298.386719 C 164.601562 310.238281 155.164062 319.976562 144.109375 326.738281 C 132.25 334.121094 118.277344 338.214844 103.933594 338.214844 C 82.757812 338.214844 63.570312 329.59375 49.722656 315.820312 C 35.875 301.988281 27.367188 282.816406 27.367188 261.664062 L 27.367188 261.351562 C 29.539062 207.132812 45.808594 172.328125 73.257812 150.742188 C 96.109375 132.8125 126.226562 124.621094 161.871094 122.515625 L 143.242188 97.824219 C 142.433594 97.945312 141.625 97.945312 140.695312 97.945312 C 129.144531 97.945312 119.769531 88.640625 119.769531 77.039062 C 119.769531 65.441406 129.082031 56.132812 140.695312 56.132812 C 152.308594 56.132812 161.683594 65.441406 161.683594 77.039062 C 161.683594 79.894531 161.0625 82.6875 160.070312 85.105469 L 182.613281 115.007812 L 219.871094 65.8125 C 218.753906 63.269531 218.257812 60.476562 218.257812 57.621094 C 218.195312 46.023438 227.507812 36.714844 239.121094 36.714844 C 250.671875 36.714844 260.046875 46.023438 260.046875 57.621094 C 260.046875 69.222656 250.734375 78.589844 239.121094 78.589844 C 238.3125 78.589844 237.507812 78.46875 236.574219 78.40625 L 203.289062 122.515625 L 187.828125 142.984375 C 186.089844 142.984375 184.351562 142.984375 182.613281 142.984375 C 142.246094 142.984375 109.273438 149.3125 86.296875 167.242188 C 63.753906 184.921875 50.21875 214.636719 48.417969 261.726562 C 48.417969 277.046875 54.6875 291.007812 64.6875 300.996094 C 74.683594 310.980469 88.65625 317.246094 103.996094 317.246094 C 114.550781 317.246094 124.613281 314.269531 133.058594 308.933594 C 141.441406 303.847656 148.519531 296.464844 153.238281 287.347656 C 154.792969 283.375 158.269531 280.707031 162.863281 278.972656 C 167.707031 277.234375 175.285156 276.425781 182.550781 276.425781 C 189.816406 276.425781 197.390625 277.234375 202.234375 278.972656 C 206.953125 280.707031 210.308594 283.375 211.859375 287.347656 Z M 248 239.578125 C 248 243.175781 246.449219 246.527344 244.089844 248.882812 C 241.605469 251.363281 238.375 252.792969 234.648438 252.792969 C 230.925781 252.792969 227.695312 251.363281 225.335938 248.882812 C 222.851562 246.527344 221.421875 243.175781 221.421875 239.578125 C 221.421875 235.917969 222.851562 232.628906 225.335938 230.148438 C 227.695312 227.789062 230.988281 226.238281 234.648438 226.238281 C 238.3125 226.238281 241.605469 227.789062 244.089844 230.148438 C 246.511719 232.566406 248 235.855469 248 239.578125 Z M 258.246094 202.726562 C 261.910156 202.726562 265.203125 204.277344 267.6875 206.636719 C 270.046875 209.117188 271.597656 212.34375 271.597656 216.066406 C 271.597656 219.664062 270.046875 223.015625 267.6875 225.371094 C 265.203125 227.851562 261.972656 229.28125 258.246094 229.28125 C 254.644531 229.28125 251.292969 227.851562 248.933594 225.371094 C 246.449219 223.015625 245.019531 219.664062 245.019531 216.066406 C 245.019531 212.40625 246.449219 209.117188 248.933594 206.636719 C 251.292969 204.214844 254.707031 202.726562 258.246094 202.726562 Z M 258.246094 249.875 C 261.910156 249.875 265.203125 251.300781 267.6875 253.660156 C 270.046875 256.140625 271.597656 259.367188 271.597656 263.089844 C 271.597656 266.75 270.046875 270.039062 267.6875 272.394531 C 265.203125 274.875 261.972656 276.304688 258.246094 276.304688 C 254.644531 276.304688 251.292969 274.875 248.933594 272.394531 C 246.449219 270.039062 245.019531 266.75 245.019531 263.089844 C 245.019531 259.429688 246.449219 256.140625 248.933594 253.660156 C 251.292969 251.300781 254.707031 249.875 258.246094 249.875 Z M 295.132812 239.578125 C 295.132812 243.175781 293.582031 246.527344 291.222656 248.882812 C 288.738281 251.363281 285.507812 252.792969 281.78125 252.792969 C 278.179688 252.792969 274.828125 251.363281 272.46875 248.882812 C 270.109375 246.527344 268.554688 243.175781 268.554688 239.578125 C 268.554688 235.917969 270.109375 232.628906 272.46875 230.148438 C 274.828125 227.789062 278.179688 226.238281 281.78125 226.238281 C 285.445312 226.238281 288.738281 227.789062 291.222656 230.148438 C 293.582031 232.566406 295.132812 235.855469 295.132812 239.578125 Z M 136.164062 229.03125 C 142 229.03125 146.71875 233.746094 146.71875 239.578125 C 146.71875 245.410156 142 250.125 136.164062 250.125 L 114.738281 250.125 L 114.738281 271.527344 C 114.738281 277.234375 110.019531 281.949219 104.304688 281.949219 C 98.46875 281.949219 93.75 277.234375 93.75 271.527344 L 93.75 250.125 L 72.324219 250.125 C 66.488281 250.125 61.769531 245.410156 61.769531 239.578125 C 61.769531 233.746094 66.488281 229.03125 72.324219 229.03125 L 93.75 229.03125 L 93.75 207.628906 C 93.75 201.796875 98.46875 197.082031 104.304688 197.082031 C 110.019531 197.082031 114.738281 201.796875 114.738281 207.628906 L 114.738281 229.03125 Z M 136.164062 229.03125 " fill-opacity="1" fill-rule="nonzero"/></g></svg>